<svg width="36" height="36" viewBox="0 0 36 36" fill="none" xmlns="http://www.w3.org/2000/svg">
<path d="M16.478 26.5418C16.6354 26.6985 16.7602 26.8848 16.8454 27.0899C16.9305 27.2951 16.9744 27.515 16.9744 27.7371C16.9744 27.9592 16.9305 28.1791 16.8454 28.3842C16.7602 28.5893 16.6354 28.7756 16.478 28.9324L15.758 29.6524C14.9937 30.4195 14.0849 31.0275 13.0842 31.4412C12.0834 31.855 11.0106 32.0662 9.92773 32.0627C8.29694 32.0632 6.70265 31.58 5.34653 30.6743C3.99042 29.7685 2.93343 28.4809 2.30929 26.9742C1.68514 25.4676 1.52189 23.8097 1.84018 22.2103C2.15848 20.6109 2.94402 19.1418 4.09741 17.9889L8.98413 13.1022C10.0235 12.063 11.3218 11.3204 12.7446 10.9514C14.1674 10.5825 15.6629 10.6005 17.0764 11.0036C18.4899 11.4067 19.7699 12.1803 20.784 13.2443C21.798 14.3083 22.5093 15.624 22.8441 17.0552C22.8996 17.2728 22.911 17.4993 22.8778 17.7214C22.8447 17.9435 22.7675 18.1567 22.6508 18.3486C22.5341 18.5405 22.3803 18.7071 22.1984 18.8388C22.0165 18.9705 21.8102 19.0645 21.5915 19.1155C21.3728 19.1664 21.1461 19.1731 20.9247 19.1353C20.7034 19.0975 20.4918 19.0159 20.3024 18.8952C20.113 18.7746 19.9496 18.6174 19.8217 18.4328C19.6938 18.2482 19.6041 18.0399 19.5577 17.8202C19.359 16.9754 18.9383 16.1989 18.3391 15.5712C17.7398 14.9434 16.9837 14.4871 16.1491 14.2493C15.3144 14.0116 14.4313 14.0012 13.5912 14.2191C12.7512 14.4369 11.9845 14.8752 11.3705 15.4886L6.48382 20.3753C5.80265 21.056 5.33861 21.9233 5.15039 22.8677C4.96218 23.812 5.05824 24.791 5.42642 25.6808C5.79461 26.5705 6.41839 27.3311 7.21887 27.8663C8.01935 28.4016 8.96057 28.6874 9.92351 28.6877C10.5633 28.6896 11.1972 28.5645 11.7883 28.3197C12.3795 28.075 12.9162 27.7154 13.3674 27.2618L14.086 26.5418C14.2428 26.3842 14.4292 26.2592 14.6344 26.1739C14.8397 26.0886 15.0598 26.0447 15.282 26.0447C15.5043 26.0447 15.7244 26.0886 15.9296 26.1739C16.1349 26.2592 16.3212 26.3842 16.478 26.5418ZM31.8976 6.35222C30.3509 4.80607 28.2535 3.9375 26.0666 3.9375C23.8796 3.9375 21.7822 4.80607 20.2355 6.35222L19.5169 7.07082C19.1999 7.38783 19.0218 7.8178 19.0218 8.26613C19.0218 8.71446 19.1999 9.14443 19.5169 9.46144C19.834 9.77846 20.2639 9.95656 20.7123 9.95656C21.1606 9.95656 21.5906 9.77846 21.9076 9.46144L22.6276 8.74144C23.5413 7.82769 24.7806 7.31435 26.0729 7.31435C27.3651 7.31435 28.6044 7.82769 29.5182 8.74144C30.4319 9.6552 30.9453 10.8945 30.9453 12.1868C30.9453 13.479 30.4319 14.7183 29.5182 15.6321L24.623 20.5118C24.1718 20.9654 23.6351 21.325 23.0439 21.5697C22.4528 21.8145 21.819 21.9396 21.1791 21.9377C20.0815 21.9369 19.0164 21.5654 18.1565 20.8833C17.2965 20.2013 16.6922 19.2488 16.4415 18.1802C16.34 17.7442 16.0695 17.3664 15.6895 17.1298C15.3095 16.8932 14.8511 16.8173 14.4151 16.9188C13.9791 17.0202 13.6012 17.2907 13.3647 17.6707C13.1281 18.0508 13.0522 18.5092 13.1537 18.9452C13.5771 20.7549 14.5994 22.3684 16.0549 23.5242C17.5103 24.68 19.3136 25.3102 21.1721 25.3127H21.1791C22.2625 25.3157 23.3358 25.1038 24.3368 24.6894C25.3377 24.2749 26.2466 23.6661 27.0109 22.8982L31.8976 18.0114C32.6632 17.2459 33.2706 16.3371 33.685 15.3369C34.0994 14.3366 34.3126 13.2645 34.3126 12.1818C34.3126 11.0991 34.0994 10.0271 33.685 9.0268C33.2706 8.02655 32.6632 7.11772 31.8976 6.35222Z" fill="white"/>
</svg>
