<svg width="36" height="36" viewBox="0 0 36 36" fill="none" xmlns="http://www.w3.org/2000/svg">
<path d="M20.2235 -0.000170783C19.9517 0.00851883 19.6844 0.0710654 19.4369 0.183844C19.1895 0.296622 18.9669 0.45739 18.782 0.656829L10.673 9.33883L4.89204 15.5278C4.0516 16.4254 3.43083 17.5057 3.07854 18.6838C3.00253 18.9368 2.93994 19.1937 2.89104 19.4533C2.66499 20.6271 2.69673 21.836 2.98404 22.9963C3.11253 23.5195 3.28773 24.03 3.50754 24.5218C3.9649 25.5432 4.61183 26.4685 5.41404 27.2488L11.8295 33.5383L11.888 33.5953C15.26 36.8428 20.666 36.7948 23.9825 33.4843L27.5765 29.8963C28.3865 29.0863 28.3865 27.7753 27.581 26.9638C27.1935 26.5753 26.6675 26.3566 26.1187 26.3558C25.5699 26.3549 25.0433 26.572 24.6545 26.9593L21.0605 30.5473C20.2228 31.3747 19.0958 31.8434 17.9183 31.854C16.7409 31.8647 15.6056 31.4164 14.753 30.6043L14.723 30.5758L8.30904 24.2863C7.33104 23.3263 6.85104 22.0828 6.88704 20.8918C6.89437 20.6277 6.92753 20.365 6.98604 20.1073C7.13714 19.454 7.45734 18.8519 7.91454 18.3613L13.694 12.1708C15.281 10.4698 18.5 10.2658 20.339 11.7538L25.5905 16.0003C26.48 16.7203 27.782 16.5808 28.5005 15.6898C28.845 15.2618 29.0057 14.7147 28.9475 14.1684C28.8893 13.6221 28.6169 13.1212 28.19 12.7753L22.94 8.52883C21.74 7.55833 20.291 6.96133 18.779 6.72583L21.8015 3.48883C22.0802 3.18925 22.264 2.81403 22.3301 2.41029C22.3962 2.00655 22.3415 1.59228 22.1729 1.21952C22.0043 0.846764 21.7293 0.532127 21.3825 0.315125C21.0357 0.0981242 20.6325 -0.0115664 20.2235 -0.000170783ZM15.9245 19.2223C15.6524 19.2223 15.383 19.276 15.1317 19.3802C14.8803 19.4844 14.652 19.6371 14.4598 19.8297C14.2675 20.0222 14.1151 20.2508 14.0112 20.5023C13.9074 20.7537 13.8541 21.0232 13.8545 21.2953C13.8541 21.5674 13.9074 21.8369 14.0112 22.0884C14.1151 22.3399 14.2675 22.5684 14.4598 22.761C14.652 22.9535 14.8803 23.1063 15.1317 23.2105C15.383 23.3147 15.6524 23.3683 15.9245 23.3683H31.184C31.4561 23.3683 31.7255 23.3147 31.9769 23.2105C32.2282 23.1063 32.4566 22.9535 32.6488 22.761C32.8411 22.5684 32.9935 22.3399 33.0973 22.0884C33.2012 21.8369 33.2544 21.5674 33.254 21.2953C33.2544 21.0232 33.2012 20.7537 33.0973 20.5023C32.9935 20.2508 32.8411 20.0222 32.6488 19.8297C32.4566 19.6371 32.2282 19.4844 31.9769 19.3802C31.7255 19.276 31.4561 19.2223 31.184 19.2223H15.9245Z" fill="white"/>
</svg>
